<?xml version="1.0" standalone="no"?><!DOCTYPE svg PUBLIC "-//W3C//DTD SVG 1.1//EN" "http://www.w3.org/Graphics/SVG/1.1/DTD/svg11.dtd"><svg t="1566552760383" class="icon" viewBox="0 0 1024 1024" version="1.1" xmlns="http://www.w3.org/2000/svg" p-id="3348" xmlns:xlink="http://www.w3.org/1999/xlink" width="200" height="200"><defs><style type="text/css"></style></defs><path d="M876.3 407.1L552 80c-10.6-10.6-24.9-16.6-39.9-16.6s-29.4 6-39.9 16.6L325 228.4V184c0-15.5-12.6-28.1-28.1-28.1-15.5 0-28.1 12.6-28.1 28.1v99.8c0 0.4 0.1 0.8 0.1 1.2l-121 122.1a56.252 56.252 0 0 0-16.3 39.6v457.6c0 31 25.2 56.2 56.2 56.2h648.5c31 0 56.2-25.2 56.2-56.2V446.7c0-14.9-5.8-29.1-16.2-39.6zM739.6 904.3H564.1V568.8h175.5v335.5z m37.5 0V550c0-10.3-8.4-18.7-18.7-18.7h-213c-10.3 0-18.7 8.4-18.7 18.7v354.2H187.8V465.4H640c10.3 0 18.7-8.4 18.7-18.7 0-10.3-8.4-18.7-18.7-18.7H206.4l305.7-308.4L817.8 428H748c-10.3 0-18.7 8.4-18.7 18.7 0 10.3 8.4 18.7 18.7 18.7h88.3v438.8h-59.2z" fill="#4F4F4F" p-id="3349"></path><path d="M449.9 531.3H260.6c-10.3 0-18.7 8.4-18.7 18.7v202.2c0 10.3 8.4 18.8 18.7 18.8h189.3c10.3 0 18.7-8.4 18.7-18.8V550c0-10.3-8.4-18.7-18.7-18.7z m-18.8 202.2H279.3V568.8h151.8v164.7zM614 771c10.3 0 18.7-8.4 18.7-18.8v-45.8c0-10.3-8.4-18.7-18.7-18.7-10.3 0-18.7 8.4-18.7 18.7v45.8c0 10.4 8.4 18.8 18.7 18.8z" fill="#4F4F4F" p-id="3350"></path></svg>