<?xml version="1.0" standalone="no"?><!DOCTYPE svg PUBLIC "-//W3C//DTD SVG 1.1//EN" "http://www.w3.org/Graphics/SVG/1.1/DTD/svg11.dtd"><svg t="1566552671096" class="icon" viewBox="0 0 1024 1024" version="1.1" xmlns="http://www.w3.org/2000/svg" p-id="1773" xmlns:xlink="http://www.w3.org/1999/xlink" width="200" height="200"><defs><style type="text/css"></style></defs><path d="M728 705.4c11.6 0 21.2-9.4 21.2-21.2v-99.2c0-11.6-9.4-21.2-21.2-21.2H476.6l-0.8-3.6c-11.4-47.6-53.8-80.8-102.6-80.8-58.2 0-105.6 47.4-105.6 105.6 0 58.2 47.4 105.6 105.6 105.6 9.2 0 18.4-1.2 27.4-3.6 5.4-1.4 10-5 12.8-9.8 2.8-4.8 3.6-10.6 2.2-16-2.4-9.2-10.8-15.6-20.4-15.6-1.8 0-3.6 0.2-5.4 0.8-5.4 1.4-10.8 2.2-16.4 2.2-35 0-63.4-28.4-63.4-63.4s28.4-63.4 63.4-63.4 63.4 28.4 63.4 63.4c0 11.6 9.4 21.2 21.2 21.2h114.2v78c0 11.6 9.4 21.2 21.2 21.2 11.6 0 21.2-9.4 21.2-21.2v-78h93v78c-0.6 11.4 8.8 21 20.4 21z" fill="" p-id="1774"></path><path d="M871 494c-14.2 0-25.6 11.6-25.6 25.6v433h-674V525.6c0-14.2-11.6-25.6-25.6-25.6-14.2 0-25.6 11.6-25.6 25.6v452.8c0 14.2 11.6 25.6 25.6 25.6h725.2c14.2 0 25.6-11.6 25.6-25.6V519.6c0-14.2-11.6-25.6-25.6-25.6z" fill="" p-id="1775"></path><path d="M1016.2 494.4L531.6 9.8C526.8 4.8 520 2 513 2c-7 0-13.6 2.8-18.6 7.8L9.8 494.4c-10.2 10.2-10.2 27 0 37.2 5 5 11.6 7.8 18.6 7.8 7 0 13.6-2.8 18.6-7.8l466-466 466 466c5 5 11.6 7.8 18.6 7.8 7 0 13.6-2.8 18.6-7.8 5-5 7.8-11.6 7.8-18.6 0-7-2.8-13.6-7.8-18.6z" fill="" p-id="1776"></path></svg>