<?xml version="1.0" standalone="no"?><!DOCTYPE svg PUBLIC "-//W3C//DTD SVG 1.1//EN" "http://www.w3.org/Graphics/SVG/1.1/DTD/svg11.dtd"><svg t="1566552664696" class="icon" viewBox="0 0 1024 1024" version="1.1" xmlns="http://www.w3.org/2000/svg" p-id="1639" xmlns:xlink="http://www.w3.org/1999/xlink" width="200" height="200"><defs><style type="text/css"></style></defs><path d="M810.666667 533.333333a106.666667 106.666667 0 0 0-88.96 165.333334l-35.413334 35.413333-45.226666-45.226667-30.08 30.08 45.226666 45.226667-15.146666 15.146667-60.373334-60.373334-30.08 30.08 60.373334 60.373334-15.146667 15.146666 30.08 30.08 125.866667-125.866666A106.666667 106.666667 0 1 0 810.666667 533.333333z m0 170.666667a64 64 0 1 1 64-64 64 64 0 0 1-64 64zM341.333333 213.333333h-64a64 64 0 0 0-64 64v128a64 64 0 0 0 64 64h64a64 64 0 0 0 64-64v-128a64 64 0 0 0-64-64z m21.333334 192a21.333333 21.333333 0 0 1-21.333334 21.333334h-64a21.333333 21.333333 0 0 1-21.333333-21.333334v-128a21.333333 21.333333 0 0 1 21.333333-21.333333h64a21.333333 21.333333 0 0 1 21.333334 21.333333z" p-id="1640"></path><path d="M746.666667 426.666667a275.626667 275.626667 0 0 0-149.333334 43.946666V85.333333h21.333334a21.333333 21.333333 0 0 0 0-42.666666H21.333333a21.333333 21.333333 0 0 0 0 42.666666h21.333334v832a64 64 0 0 0 64 64h426.666666a64 64 0 0 0 61.013334-45.653333A277.333333 277.333333 0 1 0 746.666667 426.666667zM384 938.666667h-149.333333V661.333333a21.333333 21.333333 0 0 1 21.333333-21.333333h106.666667a21.333333 21.333333 0 0 1 21.333333 21.333333z m170.666667-21.333334a21.333333 21.333333 0 0 1-21.333334 21.333334h-106.666666V661.333333a64 64 0 0 0-64-64h-106.666667a64 64 0 0 0-64 64v277.333334H106.666667a21.333333 21.333333 0 0 1-21.333334-21.333334V85.333333h469.333334v418.773334a277.333333 277.333333 0 0 0-85.333334 198.4v3.413333a277.333333 277.333333 0 0 0 85.333334 197.973333z m192 21.333334a234.666667 234.666667 0 0 1-149.333334-53.546667l-7.04-6.4a234.666667 234.666667 0 0 1 0-349.013333l7.04-6.4A234.666667 234.666667 0 1 1 746.666667 938.666667z" p-id="1641"></path></svg>