<?xml version="1.0" standalone="no"?><!DOCTYPE svg PUBLIC "-//W3C//DTD SVG 1.1//EN" "http://www.w3.org/Graphics/SVG/1.1/DTD/svg11.dtd"><svg t="1566547667059" class="icon" viewBox="0 0 1024 1024" version="1.1" xmlns="http://www.w3.org/2000/svg" p-id="528" xmlns:xlink="http://www.w3.org/1999/xlink" width="200" height="200"><defs><style type="text/css"></style></defs><path d="M793.00224 246.79168c13.22368 0 23.9424-10.71872 23.9424-23.9424l0-68.78592c0-13.22368-10.71872-23.9424-23.9424-23.9424L237.02656 130.12096c-7.14624-1.91232-14.77632-0.41984-20.67328 4.06016-5.9584 4.52736-9.45664 11.58016-9.45664 19.06304l0 715.1936c0 1.696 0.18816 3.36768 0.53632 4.99456 1.9776 11.22816 11.75936 19.76576 23.55456 19.76576l562.016 0c13.22368 0 23.9424-10.71872 23.9424-23.9424L816.94592 331.78624c0-13.2224-10.71872-23.9424-23.9424-23.9424-13.2224 0-23.9424 10.72-23.9424 23.9424l0 513.52704L411.04512 845.31328l201.07264-53.44256c10.4896-2.78912 17.79072-12.28544 17.79072-23.13856l0-511.168c0-10.752-7.16928-20.1856-17.52704-23.06688l-203.14496-56.49408 359.82208 0 0 44.84352C769.05984 236.07296 779.77984 246.79168 793.00224 246.79168zM582.02624 275.75808l0 474.56256-327.09632 86.93888L254.92992 184.7936 582.02624 275.75808z" p-id="529"></path><path d="M512 537.6c6.7456 0 13.3376-2.74048 18.0992-7.5008S537.6 518.7456 537.6 512c0-6.7456-2.74048-13.3376-7.5008-18.0992-4.7616-4.7616-11.3536-7.5008-18.0992-7.5008-6.7456 0-13.3376 2.7392-18.0992 7.5008-4.7616 4.7616-7.5008 11.3536-7.5008 18.0992 0 6.7456 2.7392 13.3376 7.5008 18.0992C498.6624 534.85952 505.2544 537.6 512 537.6z" p-id="530"></path></svg>