<?xml version="1.0" standalone="no"?><!DOCTYPE svg PUBLIC "-//W3C//DTD SVG 1.1//EN" "http://www.w3.org/Graphics/SVG/1.1/DTD/svg11.dtd"><svg t="1566549716225" class="icon" viewBox="0 0 1024 1024" version="1.1" xmlns="http://www.w3.org/2000/svg" p-id="805" xmlns:xlink="http://www.w3.org/1999/xlink" width="200" height="200"><defs><style type="text/css"></style></defs><path d="M992 524.8c-6.4 0-19.2 0-25.6-6.4L524.8 70.4C518.4 64 505.6 64 499.2 70.4L57.6 512C44.8 524.8 19.2 524.8 6.4 512 0 499.2 0 480 6.4 467.2l441.6-441.6c32-32 89.6-32 121.6 0l441.6 441.6C1024 480 1024 499.2 1017.6 512 1011.2 518.4 998.4 524.8 992 524.8z" p-id="806"></path><path d="M480 160l-326.4 320C134.4 499.2 128 518.4 128 537.6l0 307.2c0 64 51.2 115.2 121.6 115.2L384 960l0-204.8c0-64 57.6-115.2 128-115.2s128 51.2 128 115.2L640 960l134.4 0c64 0 121.6-51.2 121.6-115.2L896 537.6c0-19.2-6.4-38.4-25.6-57.6-64-64-249.6-249.6-326.4-326.4C524.8 140.8 499.2 140.8 480 160z" p-id="807"></path></svg>