<?xml version="1.0" standalone="no"?><!DOCTYPE svg PUBLIC "-//W3C//DTD SVG 1.1//EN" "http://www.w3.org/Graphics/SVG/1.1/DTD/svg11.dtd"><svg t="1566784346520" class="icon" viewBox="0 0 1024 1024" version="1.1" xmlns="http://www.w3.org/2000/svg" p-id="1194" xmlns:xlink="http://www.w3.org/1999/xlink" width="200" height="200"><defs><style type="text/css"></style></defs><path d="M890 711.2H134c-34.7 0-63-28.3-63-63v-462c0-34.7 28.3-63 63-63h756c34.7 0 63 28.3 63 63v462c0 34.8-28.3 63-63 63z m-756-546c-11.6 0-21 9.4-21 21v462c0 11.6 9.4 21 21 21h756c11.6 0 21-9.4 21-21v-462c0-11.6-9.4-21-21-21H134z" p-id="1195"></path><path d="M511.4 858.2c-11.6 0-21-9.4-21-21v-126c0-11.6 9.4-21 21-21s21 9.4 21 21v126c0 11.6-9.4 21-21 21z" p-id="1196"></path><path d="M227.9 900.8c-9.4 0-17.9-6.3-20.3-15.8-2.9-11.2 4-22.7 15.2-25.5 188-47.5 390.3-47.8 578.4-0.7 11.3 2.8 18.1 14.2 15.3 25.5-2.8 11.3-14.2 18.1-25.5 15.3-181.4-45.4-376.6-45.2-557.9 0.7-1.8 0.3-3.5 0.5-5.2 0.5zM932 592.2H92c-11.6 0-21-9.4-21-21s9.4-21 21-21h840c11.6 0 21 9.4 21 21s-9.4 21-21 21z" p-id="1197"></path></svg>