<?xml version="1.0" standalone="no"?><!DOCTYPE svg PUBLIC "-//W3C//DTD SVG 1.1//EN" "http://www.w3.org/Graphics/SVG/1.1/DTD/svg11.dtd"><svg t="1566784782907" class="icon" viewBox="0 0 1024 1024" version="1.1" xmlns="http://www.w3.org/2000/svg" p-id="1906" xmlns:xlink="http://www.w3.org/1999/xlink" width="200" height="200"><defs><style type="text/css"></style></defs><path d="M597.333333 179.2h170.752A128.042667 128.042667 0 0 1 896 307.413333v468.906667a42.666667 42.666667 0 1 1-85.333333 0V307.413333c0-23.722667-19.072-42.88-42.581334-42.88H597.333333v554.453334a42.666667 42.666667 0 0 1-85.333333 0V136.746667c0-23.722667-19.072-42.88-42.581333-42.88H298.581333A42.538667 42.538667 0 0 0 256 136.746667v682.24a42.666667 42.666667 0 0 1-85.333333 0V136.746667A127.829333 127.829333 0 0 1 298.581333 8.533333h170.837334A128.042667 128.042667 0 0 1 597.333333 136.746667V179.2z m0 0h-0.085333v85.333333H597.333333v-85.333333zM341.333333 256a42.666667 42.666667 0 1 1 0-85.333333h85.333334a42.666667 42.666667 0 0 1 0 85.333333H341.333333z m341.333334 170.666667a42.666667 42.666667 0 0 1 0-85.333334h42.666666a42.666667 42.666667 0 0 1 0 85.333334h-42.666666z m0 128a42.666667 42.666667 0 0 1 0-85.333334h42.666666a42.666667 42.666667 0 0 1 0 85.333334h-42.666666z m0 128a42.666667 42.666667 0 0 1 0-85.333334h42.666666a42.666667 42.666667 0 0 1 0 85.333334h-42.666666z m-341.333334-256a42.666667 42.666667 0 1 1 0-85.333334h85.333334a42.666667 42.666667 0 0 1 0 85.333334H341.333333z m0 170.666666a42.666667 42.666667 0 0 1 0-85.333333h85.333334a42.666667 42.666667 0 0 1 0 85.333333H341.333333z m0 170.666667a42.666667 42.666667 0 0 1 0-85.333333h85.333334a42.666667 42.666667 0 0 1 0 85.333333H341.333333z m-341.333333 34.133333a42.666667 42.666667 0 0 1 85.333333 0c0 58.922667 189.909333 128 426.666667 128s426.666667-69.077333 426.666667-128a42.666667 42.666667 0 0 1 85.333333 0c0 129.578667-230.314667 213.333333-512 213.333334s-512-83.754667-512-213.333334z" fill="#ffffff" p-id="1907"></path></svg>