<?xml version="1.0" standalone="no"?><!DOCTYPE svg PUBLIC "-//W3C//DTD SVG 1.1//EN" "http://www.w3.org/Graphics/SVG/1.1/DTD/svg11.dtd"><svg t="1566784485439" class="icon" viewBox="0 0 1024 1024" version="1.1" xmlns="http://www.w3.org/2000/svg" p-id="2397" xmlns:xlink="http://www.w3.org/1999/xlink" width="200" height="200"><defs><style type="text/css"></style></defs><path d="M61.237152 955.836551 61.237152 509.185908c0-246.685355 199.989854-446.651666 446.685317-446.651666 246.663739 0 446.669967 199.965288 446.669967 446.651666l0 446.651666L61.237152 955.837574zM805.831389 366.537024c0-86.687338-74.122128-156.960845-165.497906-156.960845L375.544202 209.576179c-91.392151 0-165.481532 70.273507-165.481532 156.960845l0 282.517445c0 64.458057 41.018863 120.19243 99.566656 144.618748l-89.033334 162.163333 109.842095 0 17.028513-37.220716 321.819449 0 16.994742 37.220716 109.858468 0L706.959587 793.31813c58.159944-24.586978 98.871803-80.063477 98.871803-144.263661L805.831389 366.537024zM284.587997 434.743452c0-61.679781 49.985439-111.663172 111.667748-111.663172l223.335495 0c61.649561 0 111.666724 49.983391 111.666724 111.663172l0 111.663172L284.587997 546.406624 284.587997 434.743452zM600.979608 285.860587 414.866354 285.860587c-10.275439 0-18.611632-8.335852-18.611632-18.61087s8.336194-18.61087 18.611632-18.61087l186.112231 0c10.274415 0 18.611632 8.335852 18.611632 18.61087S611.254023 285.860587 600.979608 285.860587zM335.833178 630.670773l31.309336 9.078773c25.913221 7.528464 46.948142 34.280758 46.948142 59.741639 0 25.492604-21.034921 40.031738-46.948142 32.504298l-31.309336-9.079796c-25.897871-7.52744-46.916418-34.248012-46.916418-59.708893C288.917783 637.71419 309.936331 623.14231 335.833178 630.670773zM618.20051 806.92094l34.024279 74.474179L364.493066 881.395118l34.056002-74.474179L618.20051 806.92094zM648.735172 731.99446c-25.913221 7.52744-46.916418-7.011694-46.916418-32.504298 0-25.460882 21.002174-52.212152 46.916418-59.741639l31.276589-9.078773c25.913221-7.52744 46.948142 7.04444 46.948142 32.536021 0 25.460882-21.034921 52.18043-46.948142 59.708893L648.735172 731.99446z" p-id="2398"></path></svg>